ply
format ascii 1.0
comment frame robot-base
comment units mm
comment normals unitless mesh-derived approach-side
comment simulated selected CAD points, not acquired measurements
comment source_name DOOR-of-CAR.step
comment source_format STEP
comment outcome completed
comment source_sha256 a2662bda82f6bb30ffd70266ad4fc6398871c36c5d2803f138ef9abd57ef53ef
element vertex 5
property double x
property double y
property double z
property double nx
property double ny
property double nz
end_header
1648.553948 299.999846 550.000016 -0.814743 -0.024194 0.579317
1658.438598 299.999962 400.000079 -1.000000 0.000001 -0.000000
1658.438587 300.000109 299.999838 -1.000000 0.000000 0.000000
1656.719118 -299.999992 300.000110 -0.823186 -0.041431 0.566258
1645.645156 -300.000145 550.000226 -0.906718 0.178429 -0.382132
